<?xml version="1.0" encoding="UTF-8" standalone="no"?> <svg id="Layer_1" data-name="Layer 1" xmlns="http://www.w3.org/2000/svg" viewBox="0 0 96 96"><title>woman icon</title>
<desc>woman modern concept ui/ux icon for website, app, presentaion, flyer, brochure etc.</desc>
<metadata><?xpacket begin="﻿" id="W5M0MpCehiHzreSzNTczkc9d"?>
<x:xmpmeta xmlns:x="adobe:ns:meta/" x:xmptk="Adobe XMP Core 6.0-c002 79.164352, 2020/01/30-15:50:38        ">
   <rdf:RDF xmlns:rdf="http://www.w3.org/1999/02/22-rdf-syntax-ns#">
      <rdf:Description rdf:about=""
            xmlns:dc="http://purl.org/dc/elements/1.1/"
            xmlns:xmp="http://ns.adobe.com/xap/1.0/"
            xmlns:xmpMM="http://ns.adobe.com/xap/1.0/mm/"
            xmlns:stEvt="http://ns.adobe.com/xap/1.0/sType/ResourceEvent#">
         <dc:title>
            <rdf:Alt>
               <rdf:li xml:lang="x-default">woman icon</rdf:li>
            </rdf:Alt>
         </dc:title>
         <dc:description>
            <rdf:Alt>
               <rdf:li xml:lang="x-default">woman modern concept ui/ux icon for website, app, presentaion, flyer, brochure etc.</rdf:li>
            </rdf:Alt>
         </dc:description>
         <dc:subject>
            <rdf:Bag>
               <rdf:li>woman</rdf:li>
               <rdf:li>girl</rdf:li>
               <rdf:li>avatar</rdf:li>
               <rdf:li>greeting</rdf:li>
               <rdf:li>sawasdee</rdf:li>
               <rdf:li>Thailand</rdf:li>
               <rdf:li>welcome</rdf:li>
            </rdf:Bag>
         </dc:subject>
         <xmp:MetadataDate>2022-08-09T14:13:43+07:00</xmp:MetadataDate>
         <xmpMM:InstanceID>xmp.iid:21e08f30-fe48-44e2-99d5-fc24e9513303</xmpMM:InstanceID>
         <xmpMM:DocumentID>xmp.did:21e08f30-fe48-44e2-99d5-fc24e9513303</xmpMM:DocumentID>
         <xmpMM:OriginalDocumentID>xmp.did:21e08f30-fe48-44e2-99d5-fc24e9513303</xmpMM:OriginalDocumentID>
         <xmpMM:History>
            <rdf:Seq>
               <rdf:li>
                  <rdf:Description>
                     <stEvt:action>saved</stEvt:action>
                     <stEvt:instanceID>xmp.iid:21e08f30-fe48-44e2-99d5-fc24e9513303</stEvt:instanceID>
                     <stEvt:when>2022-08-09T14:13:43+07:00</stEvt:when>
                     <stEvt:softwareAgent>Adobe Bridge 2020 (Macintosh)</stEvt:softwareAgent>
                     <stEvt:changed>/metadata</stEvt:changed>
                  </rdf:Description>
               </rdf:li>
            </rdf:Seq>
         </xmpMM:History>
      </rdf:Description>
   </rdf:RDF>
</x:xmpmeta>
                                                                                                    
                                                                                                    
                                                                                                    
                                                                                                    
                                                                                                    
                       
<?xpacket end="w"?></metadata>
<path d="M15.833,70.656a12.708,12.708,0,0,0,2.415.8l-4.694,6.074a2.765,2.765,0,0,0-.126,3.22,33.846,33.846,0,0,0-.4,6.08,10.405,10.405,0,0,0,.6,3.284c.769,1.96,5.99,3.515,6.659,3.609,1.672.234,53.749.234,55.422,0,.67-.094,5.895-1.649,6.664-3.609a10.381,10.381,0,0,0,.6-3.284,33.9,33.9,0,0,0-.406-6.113,2.777,2.777,0,0,0-.15-3.186L77.8,71.547l1.914-.717a11.2,11.2,0,0,0,1.374-.605A15,15,0,0,0,80.71,43.59a3.843,3.843,0,0,1-1.989-4.363,9,9,0,0,0-4.043-9.91A1.339,1.339,0,0,1,74,28.17V28a26,26,0,0,0-52,0v.169a1.339,1.339,0,0,1-.678,1.148,9,9,0,0,0-4.028,9.97,3.9,3.9,0,0,1-2.175,4.39,14.98,14.98,0,0,0,.714,26.979ZM40.044,59.149a7.684,7.684,0,0,0,4.443,5.676,15.929,15.929,0,0,0-.542,1.549c-.148.475-.272.973-.4,1.478-.029.115-.06.231-.089.347A7.863,7.863,0,0,1,40,69c-3.86,0-7-2.691-7-6a5.159,5.159,0,0,1,.207-1.384c.553-.147,1.115-.271,1.685-.367A12.42,12.42,0,0,0,40.044,59.149ZM29.4,37.251a.99.99,0,0,0-.721.291,1,1,0,0,0,0,1.414l.931.93a.971.971,0,0,0,.224.149c.136.6.294,1.189.479,1.765a3.729,3.729,0,0,1-2.633-2.874,4.268,4.268,0,0,1,.18-2.8,2.407,2.407,0,0,1,1.479-1.389c-.005.241-.022.475-.022.719C29.316,36.064,29.348,36.661,29.4,37.251Zm.917,6.651a.862.862,0,1,1-.861.861A.862.862,0,0,1,30.316,43.9Zm1-8.445a26.072,26.072,0,0,1,.609-5.744,16.96,16.96,0,0,0,22.658-5.331,9.952,9.952,0,0,0,9.459,4.671,28.967,28.967,0,0,1,.638,6.4,18.492,18.492,0,0,1-.374,3.7q-.177.871-.437,1.725-.127.42-.274.834a19.459,19.459,0,0,1-3.263,5.806A19.013,19.013,0,0,1,55.6,51.685a15.6,15.6,0,0,1-5.462,2.126A12.47,12.47,0,0,1,48,54C40.123,54,31.316,46.07,31.316,35.457ZM65.68,43.9a.862.862,0,1,1-.862.861A.862.862,0,0,1,65.68,43.9Zm0-2.095c.186-.578.345-1.17.482-1.772a.971.971,0,0,0,.224-.149l.93-.93a1,1,0,0,0-.721-1.705c.051-.59.084-1.187.084-1.794,0-.238-.013-.458-.017-.69a2.419,2.419,0,0,1,1.407,1.361,4.259,4.259,0,0,1,.181,2.8A3.8,3.8,0,0,1,65.681,41.807ZM61.108,61.253q.855.147,1.685.37A5.188,5.188,0,0,1,63,63c0,3.309-3.14,6-7,6a7.855,7.855,0,0,1-3.486-.815c-.028-.111-.058-.222-.085-.333-.126-.505-.251-1-.4-1.479-.155-.5-.321-1.02-.523-1.5a7.6,7.6,0,0,0,4.47-5.71A12.452,12.452,0,0,0,61.108,61.253ZM48,56a15.518,15.518,0,0,0,5.874-1.223L54,56.99c0,.007,0,.013,0,.02l.007.132A5.6,5.6,0,0,1,50.2,63.223a1.834,1.834,0,0,0-.708-.215,2.411,2.411,0,0,0-1.5.37,2.484,2.484,0,0,0-1.511-.37,1.814,1.814,0,0,0-.655.187A5.659,5.659,0,0,1,42,57.072l.162-2.278A15.53,15.53,0,0,0,48,56ZM15.489,89.385a8.569,8.569,0,0,1-.466-2.651,27.663,27.663,0,0,1,.229-4.5,19.181,19.181,0,0,0,2.65,1.348,6.314,6.314,0,0,0-.367,2.045,1,1,0,0,0,.985,1.016.982.982,0,0,0,1.015-.985c.038-2.537,2.193-4.534,6.587-6.1,2.146-.767,4.405-1.419,6.59-2.05,2.042-.589,4.154-1.2,6.2-1.907a9.849,9.849,0,0,0,4.928-3.142,9.436,9.436,0,0,0,1.432-3.278l.008-.032c.074-.274.145-.549.211-.813.116-.468.231-.93.367-1.371a11.784,11.784,0,0,1,.688-1.845.96.96,0,0,0,.116-.114A.533.533,0,0,1,47,65.1V76.958c-.62,2.527-17.962,14.841-20.192,15.029l-.438,0a41.561,41.561,0,0,1-5.8-.248C19.522,91.6,15.885,90.107,15.489,89.385Zm65.488-2.651a8.566,8.566,0,0,1-.46,2.636c-.4.737-4.044,2.227-5.086,2.373a41.659,41.659,0,0,1-5.81.248l-.424,0C66.951,91.8,49.569,79.452,49,77V65.12a.346.346,0,0,1,.279-.136,6.515,6.515,0,0,1,.842,1.981c.136.441.251.9.368,1.371.064.256.134.523.2.79l.01.036a9.476,9.476,0,0,0,1.437,3.3A9.846,9.846,0,0,0,57.072,75.6c2.044.709,4.157,1.317,6.2,1.906,2.188.631,4.45,1.283,6.6,2.051,4.4,1.571,6.555,3.568,6.593,6.1a1.016,1.016,0,0,0,1.015.985,1,1,0,0,0,.985-1.016,6.333,6.333,0,0,0-.371-2.053,19.291,19.291,0,0,0,2.655-1.357A28.226,28.226,0,0,1,80.977,86.734Z" fill="#ffffff"/><path d="M48.259,43.9h.669a1,1,0,0,0,0-2h-.58l.62-2.48a1,1,0,1,0-1.941-.485L46.386,41.5a1.931,1.931,0,0,0,1.873,2.4Z" fill="#ffffff"/><path d="M48,48.555a4.632,4.632,0,0,0,3.123-1.183,1,1,0,1,0-1.329-1.495,2.712,2.712,0,0,1-3.588,0,1,1,0,0,0-1.329,1.495A4.629,4.629,0,0,0,48,48.555Z" fill="#ffffff"/><path d="M38.161,36.205a2.57,2.57,0,0,1,1.532-.657,2.474,2.474,0,0,0-1,2.228c0,1.289.625,2.334,1.4,2.334s1.4-1.045,1.4-2.334A2.61,2.61,0,0,0,40.59,35.6a2.565,2.565,0,0,1,1.159.6,1,1,0,0,0,1.329-1.5,4.714,4.714,0,0,0-6.246,0,1,1,0,0,0,1.329,1.5Z" fill="#ffffff"/><path d="M54.246,36.205a2.565,2.565,0,0,1,1.159-.6,2.61,2.61,0,0,0-.893,2.171c0,1.289.625,2.334,1.4,2.334s1.4-1.045,1.4-2.334a2.474,2.474,0,0,0-1-2.228,2.57,2.57,0,0,1,1.532.657,1,1,0,0,0,1.329-1.5,4.714,4.714,0,0,0-6.246,0,1,1,0,0,0,1.329,1.5Z" fill="#ffffff"/></svg>